{"accessors":[{"bufferView":1,"byteOffset":0,"componentType":5123,"count":240,"min":[0,0,0],"max":[65535,65535,65535],"type":"VEC3","extensions":{"WEB3D_quantized_attributes":{"decodedMin":[-1.2824209928512573,4.099883079528809,-2.42415189743042],"decodedMax":[1.2824209928512573,5.484131813049316,1.2824209928512573],"decodeMatrix":[0.000039136980021401,0,0,0,0,0.00002112228173526372,0,0,0,0,0.000056558676894509454,0,-1.2824209928512573,4.099883079528809,-2.42415189743042,1]}},"name":"accessor_0"},{"bufferView":2,"byteOffset":0,"componentType":5121,"count":240,"min":[0,0],"max":[255,255],"type":"VEC2","name":"accessor_1"},{"bufferView":0,"byteOffset":0,"componentType":5126,"count":240,"min":[970],"max":[16775911],"type":"SCALAR","name":"accessor_2"},{"bufferView":3,"byteOffset":0,"componentType":5123,"count":444,"min":[0],"max":[239],"type":"SCALAR","name":"accessor_3"},{"bufferView":1,"byteOffset":1440,"componentType":5123,"count":960,"min":[0,0,0],"max":[65535,65535,65535],"type":"VEC3","extensions":{"WEB3D_quantized_attributes":{"decodedMin":[1.1830120086669922,5.565314769744873,-0.7412779927253723],"decodedMax":[1.3055750131607056,6.260766983032227,0.7412840127944946],"decodeMatrix":[0.0000018701915692944743,0,0,0,0,0.000010611920550657717,0,0,0,0,0.000022622446105437812,0,1.1830120086669922,5.565314769744873,-0.7412779927253723,1]}},"name":"accessor_4"},{"bufferView":2,"byteOffset":480,"componentType":5121,"count":960,"min":[0,0],"max":[246,255],"type":"VEC2","name":"accessor_5"},{"bufferView":3,"byteOffset":888,"componentType":5123,"count":5700,"min":[0],"max":[959],"type":"SCALAR","name":"accessor_6"},{"bufferView":1,"byteOffset":7200,"componentType":5123,"count":1754,"min":[0,0,0],"max":[65535,65535,65535],"type":"VEC3","extensions":{"WEB3D_quantized_attributes":{"decodedMin":[-0.16169500350952148,2.6116740703582764,-5.068502902984619],"decodedMax":[0.16169500350952148,4.713850021362305,4.772150039672852],"decodeMatrix":[0.0000049346151982763864,0,0,0,0,0.00003207714886707909,0,0,0,0,0.00015015873872980043,0,-0.16169500350952148,2.6116740703582764,-5.068502902984619,1]}},"name":"accessor_7"},{"bufferView":2,"byteOffset":2400,"componentType":5121,"count":1754,"min":[4,0],"max":[251,255],"type":"VEC2","name":"accessor_8"},{"bufferView":0,"byteOffset":960,"componentType":5126,"count":1754,"min":[4069],"max":[16776490],"type":"SCALAR","name":"accessor_9"},{"bufferView":3,"byteOffset":12288,"componentType":5123,"count":3384,"min":[0],"max":[1753],"type":"SCALAR","name":"accessor_10"},{"bufferView":1,"byteOffset":17724,"componentType":5123,"count":576,"min":[0,0,0],"max":[65535,65535,65535],"type":"VEC3","extensions":{"WEB3D_quantized_attributes":{"decodedMin":[-2.148719072341919,7.051420211791992,-2.148719072341919],"decodedMax":[2.148719072341919,9.392027854919434,2.148719072341919],"decodeMatrix":[0.00006557470274942913,0,0,0,0,0.00003571538327805663,0,0,0,0,0.00006557470274942913,0,-2.148719072341919,7.051420211791992,-2.148719072341919,1]}},"name":"accessor_11"},{"bufferView":2,"byteOffset":5908,"componentType":5121,"count":576,"min":[0,0],"max":[255,255],"type":"VEC2","name":"accessor_12"},{"bufferView":0,"byteOffset":7976,"componentType":5126,"count":576,"min":[0],"max":[16777215],"type":"SCALAR","name":"accessor_13"},{"bufferView":3,"byteOffset":19056,"componentType":5123,"count":1140,"min":[0],"max":[575],"type":"SCALAR","name":"accessor_14"},{"bufferView":1,"byteOffset":21180,"componentType":5123,"count":128,"min":[0,0,0],"max":[65535,65535,65535],"type":"VEC3","extensions":{"WEB3D_quantized_attributes":{"decodedMin":[1.2853440046310425,6.0845232009887695,-0.23144899308681488],"decodedMax":[2.3925869464874268,6.547420978546143,0.23144899308681488],"decodeMatrix":[0.00001689544429474913,0,0,0,0,0.000007063367323680065,0,0,0,0,0.0000070633705069600944,0,1.2853440046310425,6.0845232009887695,-0.23144899308681488,1]}},"name":"accessor_15"},{"bufferView":2,"byteOffset":7060,"componentType":5121,"count":128,"min":[0,16],"max":[245,239],"type":"VEC2","name":"accessor_16"},{"bufferView":0,"byteOffset":10280,"componentType":5126,"count":128,"min":[638],"max":[16775168],"type":"SCALAR","name":"accessor_17"},{"bufferView":3,"byteOffset":21336,"componentType":5123,"count":186,"min":[0],"max":[127],"type":"SCALAR","name":"accessor_18"},{"bufferView":1,"byteOffset":21948,"componentType":5123,"count":3968,"min":[0,0,0],"max":[65535,65535,65535],"type":"VEC3","extensions":{"WEB3D_quantized_attributes":{"decodedMin":[0.9926649928092957,6.7358222007751465,-0.5678309798240662],"decodedMax":[1.3249510526657104,7.06810998916626,0.6067299842834473],"decodeMatrix":[0.000005070360263316011,0,0,0,0,0.000005070386639064824,0,0,0,0,0.000017922651470321407,0,0.9926649928092957,6.7358222007751465,-0.5678309798240662,1]}},"name":"accessor_19"},{"bufferView":2,"byteOffset":7316,"componentType":5121,"count":3968,"min":[8,1],"max":[247,254],"type":"VEC2","name":"accessor_20"},{"bufferView":0,"byteOffset":10792,"componentType":5126,"count":3968,"min":[749],"max":[16776709],"type":"SCALAR","name":"accessor_21"},{"bufferView":3,"byteOffset":21708,"componentType":5123,"count":5760,"min":[0],"max":[3967],"type":"SCALAR","name":"accessor_22"},{"bufferView":1,"byteOffset":45756,"componentType":5123,"count":5952,"min":[0,0,0],"max":[65535,65535,65535],"type":"VEC3","extensions":{"WEB3D_quantized_attributes":{"decodedMin":[1.3124330043792725,3.3170089721679688,-0.19992899894714355],"decodedMax":[2.1563661098480225,4.93831205368042,0.19992899894714355],"decodeMatrix":[0.000012877593735694667,0,0,0,0,0.000024739499221979874,0,0,0,0,0.000006101441945438119,0,1.3124330043792725,3.3170089721679688,-0.19992899894714355,1]}},"name":"accessor_23"},{"bufferView":2,"byteOffset":15252,"componentType":5121,"count":5952,"min":[8,1],"max":[247,254],"type":"VEC2","name":"accessor_24"},{"bufferView":0,"byteOffset":26664,"componentType":5126,"count":5952,"min":[343],"max":[16774962],"type":"SCALAR","name":"accessor_25"},{"bufferView":3,"byteOffset":33228,"componentType":5123,"count":8640,"min":[0],"max":[5951],"type":"SCALAR","name":"accessor_26"},{"bufferView":1,"byteOffset":81468,"componentType":5123,"count":1984,"min":[0,0,0],"max":[65535,65535,65535],"type":"VEC3","extensions":{"WEB3D_quantized_attributes":{"decodedMin":[-1.414754033088684,4.901218891143799,-1.414754033088684],"decodedMax":[1.414754033088684,7.7307257652282715,1.4147529602050781],"decodeMatrix":[0.00004317552553867961,0,0,0,0,0.00004317550734850801,0,0,0,0,0.00004317550916752517,0,-1.414754033088684,4.901218891143799,-1.414754033088684,1]}},"name":"accessor_27"},{"bufferView":2,"byteOffset":27156,"componentType":5121,"count":1984,"min":[8,1],"max":[247,254],"type":"VEC2","name":"accessor_28"},{"bufferView":0,"byteOffset":50472,"componentType":5126,"count":1984,"min":[790],"max":[16775920],"type":"SCALAR","name":"accessor_29"},{"bufferView":3,"byteOffset":50508,"componentType":5123,"count":2880,"min":[0],"max":[1983],"type":"SCALAR","name":"accessor_30"},{"bufferView":1,"byteOffset":93372,"componentType":5123,"count":1984,"min":[0,0,0],"max":[65535,65535,65535],"type":"VEC3","extensions":{"WEB3D_quantized_attributes":{"decodedMin":[-1.9604259729385376,1.509639024734497,-1.9604270458221436],"decodedMax":[1.9604270458221436,5.430490970611572,1.9604259729385376],"decodeMatrix":[0.0000598283820669975,0,0,0,0,0.000059828365695843064,0,0,0,0,0.0000598283820669975,0,-1.9604259729385376,1.509639024734497,-1.9604270458221436,1]}},"name":"accessor_31"},{"bufferView":2,"byteOffset":31124,"componentType":5121,"count":1984,"min":[8,1],"max":[247,254],"type":"VEC2","name":"accessor_32"},{"bufferView":0,"byteOffset":58408,"componentType":5126,"count":1984,"min":[790],"max":[16775920],"type":"SCALAR","name":"accessor_33"},{"bufferView":3,"byteOffset":56268,"componentType":5123,"count":2880,"min":[0],"max":[1983],"type":"SCALAR","name":"accessor_34"},{"bufferView":1,"byteOffset":105276,"componentType":5123,"count":1984,"min":[0,0,0],"max":[65535,65535,65535],"type":"VEC3","extensions":{"WEB3D_quantized_attributes":{"decodedMin":[-2.4146339893341064,-2.4146339893341064,-2.414634943008423],"decodedMax":[2.414634943008423,2.4146339893341064,2.4146339893341064],"decodeMatrix":[0.0000736899203836504,0,0,0,0,0.00007368990583151313,0,0,0,0,0.0000736899203836504,0,-2.4146339893341064,-2.4146339893341064,-2.414634943008423,1]}},"name":"accessor_35"},{"bufferView":2,"byteOffset":35092,"componentType":5121,"count":1984,"min":[8,1],"max":[247,254],"type":"VEC2","name":"accessor_36"},{"bufferView":0,"byteOffset":66344,"componentType":5126,"count":1984,"min":[790],"max":[16775920],"type":"SCALAR","name":"accessor_37"},{"bufferView":3,"byteOffset":62028,"componentType":5123,"count":2880,"min":[0],"max":[1983],"type":"SCALAR","name":"accessor_38"}],"asset":{"generator":"obj2gltf","version":"2.0","premultipliedAlpha":true},"buffers":[{"byteLength":301884,"uri":"data:application/octet-stream;base64,"}],"bufferViews":[{"buffer":0,"byteLength":74280,"byteOffset":0,"target":34962,"name":"bufferView_0","byteStride":4},{"buffer":0,"byteLength":117180,"byteOffset":74280,"target":34962,"name":"bufferView_0","byteStride":6},{"buffer":0,"byteLength":39060,"byteOffset":191460,"target":34962,"name":"bufferView_0","byteStride":2},{"buffer":0,"byteLength":67788,"byteOffset":230520,"target":34963,"name":"bufferView_1"},{"buffer":0,"byteOffset":298308,"byteLength":2711},{"buffer":0,"byteOffset":301020,"byteLength":862}],"extensionsUsed":["WEB3D_quantized_attributes","KHR_technique_webgl"],"materials":[{"technique":0,"values":{"ambient":[0,0,0,1],"diffuse":[0.64,0.005018,0.005018,1],"emission":[0,0,0,1],"specular":[0.5,0.5,0.5,1],"shininess":96.078431,"transparency":1},"name":"scarf"},{"technique":0,"values":{"ambient":[0,0,0,1],"diffuse":[0,0,0,1],"emission":[0,0,0,1],"specular":[1,1,1,1],"shininess":96.078431,"transparency":1},"name":"button"},{"technique":0,"values":{"ambient":[0,0,0,1],"diffuse":[0.041775,0.007504,0.002707,1],"emission":[0,0,0,1],"specular":[0.5,0.5,0.5,1],"shininess":96.078431,"transparency":1},"name":"hand"},{"technique":0,"values":{"ambient":[0,0,0,1],"diffuse":[0.015995,0.015995,0.015995,1],"emission":[0,0,0,1],"specular":[1,1,1,1],"shininess":96.078431,"transparency":1},"name":"hat"},{"technique":0,"values":{"ambient":[0,0,0,1],"diffuse":[0.64,0.259326,0.033418,1],"emission":[0,0,0,1],"specular":[0.5,0.5,0.5,1],"shininess":96.078431,"transparency":1},"name":"orange"},{"technique":0,"values":{"ambient":[0,0,0,1],"diffuse":[0.729115,0.729115,0.729115,1],"emission":[0,0,0,1],"specular":[0.857143,0.857143,0.857143,1],"shininess":96.078431,"transparency":1},"name":"snow"}],"meshes":[{"name":"Cylinder.007-Mesh","primitives":[{"attributes":{"POSITION":0,"NORMAL":1,"TEXCOORD_0":2},"indices":3,"material":0,"mode":4}]},{"name":"NurbsPath-Mesh","primitives":[{"attributes":{"POSITION":4,"NORMAL":5},"indices":6,"material":1,"mode":4}]},{"name":"Cylinder.005-Mesh","primitives":[{"attributes":{"POSITION":7,"NORMAL":8,"TEXCOORD_0":9},"indices":10,"material":2,"mode":4}]},{"name":"Cylinder-Mesh","primitives":[{"attributes":{"POSITION":11,"NORMAL":12,"TEXCOORD_0":13},"indices":14,"material":3,"mode":4}]},{"name":"Cone-Mesh","primitives":[{"attributes":{"POSITION":15,"NORMAL":16,"TEXCOORD_0":17},"indices":18,"material":4,"mode":4}]},{"name":"Sphere.006-Mesh","primitives":[{"attributes":{"POSITION":19,"NORMAL":20,"TEXCOORD_0":21},"indices":22,"material":1,"mode":4}]},{"name":"Sphere.003-Mesh","primitives":[{"attributes":{"POSITION":23,"NORMAL":24,"TEXCOORD_0":25},"indices":26,"material":1,"mode":4}]},{"name":"Sphere.002-Mesh","primitives":[{"attributes":{"POSITION":27,"NORMAL":28,"TEXCOORD_0":29},"indices":30,"material":5,"mode":4}]},{"name":"Sphere.001-Mesh","primitives":[{"attributes":{"POSITION":31,"NORMAL":32,"TEXCOORD_0":33},"indices":34,"material":5,"mode":4}]},{"name":"Sphere-Mesh","primitives":[{"attributes":{"POSITION":35,"NORMAL":36,"TEXCOORD_0":37},"indices":38,"material":5,"mode":4}]}],"nodes":[{"name":"Cylinder.007","mesh":0},{"name":"NurbsPath","mesh":1},{"name":"Cylinder.005","mesh":2},{"name":"Cylinder","mesh":3},{"name":"Cone","mesh":4},{"name":"Sphere.006","mesh":5},{"name":"Sphere.003","mesh":6},{"name":"Sphere.002","mesh":7},{"name":"Sphere.001","mesh":8},{"name":"Sphere","mesh":9}],"scene":0,"scenes":[{"nodes":[0,1,2,3,4,5,6,7,8,9],"name":"scene"}],"programs":[{"attributes":["a_position","a_normal","a_texcoord_0"],"fragmentShader":1,"vertexShader":0,"name":"program0"}],"shaders":[{"type":35633,"name":"vertexShader0","bufferView":4},{"type":35632,"name":"fragmentShader0","bufferView":5}],"techniques":[{"attributes":{"a_position":"position","a_normal":"normal","a_texcoord_0":"texcoord_0"},"parameters":{"modelViewMatrix":{"semantic":"MODELVIEW","type":35676},"projectionMatrix":{"semantic":"PROJECTION","type":35676},"normalMatrix":{"semantic":"MODELVIEWINVERSETRANSPOSE","type":35675},"ambient":{"type":35666},"diffuse":{"type":35666},"emission":{"type":35666},"specular":{"type":35666},"shininess":{"type":5126},"transparency":{"type":5126},"position":{"semantic":"POSITION","type":35665},"normal":{"semantic":"NORMAL","type":35667},"texcoord_0":{"semantic":"TEXCOORD_0","type":5126}},"program":0,"states":{"enable":[2884,2929]},"uniforms":{"u_modelViewMatrix":"modelViewMatrix","u_projectionMatrix":"projectionMatrix","u_normalMatrix":"normalMatrix","u_ambient":"ambient","u_diffuse":"diffuse","u_emission":"emission","u_specular":"specular","u_shininess":"shininess","u_transparency":"transparency"},"name":"technique0"}],"extensionsRequired":["WEB3D_quantized_attributes","KHR_technique_webgl"]}
